<?xml version="1.0" encoding="UTF-8" standalone="no"?>
<svg id="svg3390" xmlns:rdf="http://www.w3.org/1999/02/22-rdf-syntax-ns#" xmlns="http://www.w3.org/2000/svg" height="100%" viewBox="0 0 100 60" width="100%" version="1.1" xmlns:cc="http://creativecommons.org/ns#" xmlns:dc="http://purl.org/dc/elements/1.1/">
<g id="rocket" viewBox="0 0 100 60">
<path id="path3408" fill="#f48732" d="m63.809 56.608c-3.321-0.876-6.025-3.477-7.329-7.052-1.095-3.003-1.15-3.548-1.311-13.093-0.08201-4.851-0.20921-12.262-0.28268-16.47-0.14893-8.5296-0.04633-10.113 0.83425-12.871 0.68389-2.1426 1.5338-3.5409 2.9625-4.8736 1.3968-1.303 2.2487-1.7564 4.2519-2.263 2.4103-0.6095 5.1541-0.20982 8.1905 1.1931 1.2678 0.58576 1.975 1.0444 6.9936 4.5355 3.2437 2.2564 5.7983 3.8322 12.06 7.4389 2.97 1.7107 6.0999 3.588 6.9553 4.1717 1.8085 1.234 4.3743 3.815 5.1787 5.2093 0.8491 1.4717 1.456 3.564 1.456 5.0196 0 1.5737-0.69978 3.8623-1.5961 5.22-1.0023 1.5182-3.3897 3.7491-5.1809 4.8413-4.9194 2.9998-7.8183 5.1473-11.645 8.627-4.4736 4.0676-9.1664 7.4926-12.308 8.9825-3.1914 1.5137-6.7285 2.0442-9.2299 1.3843zm-31.86-10.818c-4.0241-0.41445-7.4018-1.3027-9.9397-2.614-1.7883-0.92402-2.6603-1.8562-2.6603-2.844 0-1.0167-0.41171-1.3591-1.8188-1.5126-5.413-0.59-12.844-3.205-15.842-5.575-1.6583-1.31-2.1722-2.92-1.4436-4.521 0.66467-1.4608 3.5571-3.7462 6.3392-5.0089 2.4794-1.1253 6.3871-2.2642 9.9753-2.9075 2.3007-0.41243 2.2276-0.37011 2.7847-1.6118 1.1738-2.6162 4.8672-4.4004 11.255-5.4372 2.7249-0.44227 8.5588-0.4416 11.393 0.0013 2.7874 0.43566 3.8466 0.73517 5.2989 1.4983 1.8313 0.96238 2.4785 2.0096 2.4785 4.0105 0 1.4416-0.44604 2.5947-1.3724 3.5479-0.43316 0.44569-0.78757 0.90979-0.78757 1.0313 0 0.12153 0.32087 0.65103 0.71304 1.1767 1.1235 1.5058 1.5105 2.9173 1.4034 5.118-0.09685 1.9902-0.45819 3.1576-1.4019 4.5293-0.294 0.42728-0.53455 0.94314-0.53455 1.1463 0 0.20317 0.35216 0.73694 0.78258 1.1862 0.88546 0.92412 1.1974 1.7559 1.1974 3.1928 0 2.596-1.3508 4.1487-4.272 4.9104-2.1153 0.55154-10.65 0.98233-13.548 0.68385z"/>
<path id="path3406" fill="#00bacb" d="m63.809 56.608c-3.3212-0.87622-6.0245-3.4774-7.3285-7.0516-1.0956-3.0031-1.1502-3.5484-1.3116-13.093-0.082-4.851-0.20922-12.262-0.28268-16.47-0.14893-8.5296-0.0463-10.113 0.83425-12.871 0.68389-2.1426 1.5338-3.5409 2.9625-4.8736 1.3968-1.303 2.2487-1.7564 4.2519-2.263 2.4103-0.6095 5.1541-0.20982 8.1905 1.1931 1.2678 0.58576 1.975 1.0444 6.9936 4.5355 3.2437 2.2564 5.7983 3.8322 12.06 7.4389 2.97 1.7107 6.0999 3.588 6.9553 4.1717 1.8085 1.234 4.3743 3.815 5.1787 5.2093 0.8491 1.4717 1.456 3.564 1.456 5.0196 0 1.5737-0.69978 3.8623-1.5961 5.22-1.0023 1.5182-3.3897 3.7491-5.1809 4.8413-4.9194 2.9998-7.8183 5.1473-11.645 8.627-4.4736 4.0676-9.1664 7.4926-12.308 8.9825-3.1914 1.5137-6.7285 2.0442-9.2299 1.3843zm-41.85-16.667c-1.8379-0.12574-2.3883-0.22411-2.565-0.45846-0.12375-0.16411-0.225-0.36-0.225-0.43531 0-0.24952 1.3351-1.4548 2.3066-2.0823 4.2484-2.744 13.078-4.004 20.463-2.9202 2.3814 0.34948 4.9278 1.0364 5.4507 1.4703 0.93417 0.77529-1.5806 2.3906-5.0907 3.2699-1.5157 0.37969-3.4031 0.58826-9.09 1.0045-5.226 0.38249-7.439 0.41231-11.25 0.15159zm10.35-14.374c-4.7167-0.44678-8.5216-1.5066-11.341-3.1591-1.047-0.61364-1.9788-1.5293-1.9788-1.9445 0-0.49903 0.48553-0.79175 1.4963-0.90214 6.6481-0.72601 13.937-0.34228 20.464 1.0774 1.6343 0.35547 2.5436 0.68535 4.32 1.5672 1.3787 0.68445 2.2717 1.2345 2.306 1.4206 0.0728 0.39446-0.60152 0.8269-1.7998 1.1542-2.2613 0.61775-10.294 1.0868-13.466 0.78632z"/>
<path id="path3404" fill="#ea500d" d="m75.103 42.067c-1.5719-0.58611-2.7839-1.9679-3.4019-3.8787-0.35491-1.0972-0.39641-1.7872-0.55857-9.2853-0.18686-8.6402-0.11974-9.93 0.60427-11.613 0.21311-0.49538 0.75905-1.2383 1.2419-1.6899 1.9969-1.8679 4.7962-1.7286 7.8912 0.39255 3.0836 2.1134 5.0004 3.3326 7.4084 4.7125 3.5127 2.0128 4.3744 2.6 5.2118 3.5514 1.1293 1.283 1.5374 2.278 1.5365 3.7465-0.001 2.1963-1.1421 3.7046-4.2437 5.611-1.499 0.92136-2.9465 2.0525-5.6831 4.441-1.8316 1.5986-4.2533 3.2144-5.5794 3.7226-1.3154 0.50418-3.4732 0.64522-4.4275 0.2894zm-53.145-2.126c-1.8379-0.12574-2.3883-0.22411-2.565-0.45846-0.12375-0.16411-0.225-0.36-0.225-0.43531 0-0.24952 1.3351-1.4548 2.3066-2.0823 4.2484-2.744 13.078-4.004 20.463-2.9202 2.3814 0.34948 4.9278 1.0364 5.4507 1.4703 0.93417 0.77529-1.5805 2.3906-5.0907 3.2699-1.5157 0.37969-3.4031 0.58826-9.09 1.0045-5.226 0.38249-7.4389 0.41231-11.25 0.15159zm10.35-14.374c-4.7167-0.44678-8.5216-1.5066-11.341-3.1591-1.047-0.61364-1.9788-1.5293-1.9788-1.9445 0-0.49903 0.48553-0.79175 1.4963-0.90214 6.6481-0.72601 13.937-0.34228 20.464 1.0774 1.6343 0.35547 2.5436 0.68535 4.32 1.5672 1.3787 0.68445 2.2717 1.2345 2.306 1.4206 0.07276 0.39446-0.60151 0.8269-1.7997 1.1542-2.2613 0.61775-10.294 1.0868-13.466 0.78632z"/>
<path id="path3402" fill="#008ba5" d="m75.182 42c-1.572-0.586-2.784-1.968-3.402-3.879-0.355-1.097-0.397-1.787-0.559-9.285-0.187-8.64-0.12-9.93 0.604-11.613 0.21311-0.49538 0.75905-1.2383 1.2419-1.6899 1.9969-1.8679 4.7962-1.7286 7.8912 0.39255 3.0836 2.1134 5.0004 3.3326 7.4084 4.7125 3.5127 2.0128 4.3744 2.6 5.2118 3.5514 1.1293 1.283 1.5374 2.278 1.5365 3.7465-0.001 2.1963-1.1421 3.7046-4.2437 5.611-1.499 0.92136-2.9465 2.0525-5.6831 4.441-1.8316 1.5986-4.2533 3.2144-5.5794 3.7226-1.3154 0.50418-3.4732 0.64522-4.4275 0.2894z"/>
</g>
</svg>
